<svg width="664" height="411" viewBox="0 0 664 411" fill="none" xmlns="http://www.w3.org/2000/svg"><path d="M264.597 305.986a3 3 0 0 1 3-3h129.764a3 3 0 0 1 3 3v88.236a3 3 0 0 1-3 3H267.597a3 3 0 0 1-3-3v-88.236Z" fill="#151220"/><path d="M265.097 305.986a2.5 2.5 0 0 1 2.5-2.5h129.764a2.5 2.5 0 0 1 2.5 2.5v88.236a2.5 2.5 0 0 1-2.5 2.5H267.597a2.5 2.5 0 0 1-2.5-2.5v-88.236Z" stroke="#fff" stroke-opacity=".1"/><path fill-rule="evenodd" clip-rule="evenodd" d="M262.611 296h141.333a5 5 0 0 1 5 5v103.208H257.611V301a5 5 0 0 1 5-5Zm-6 5a6 6 0 0 1 6-6h141.333a6 6 0 0 1 6 6v103.611h12.778v2.889a3.5 3.5 0 0 1-3.5 3.5H247.333a3.5 3.5 0 0 1-3.5-3.5v-2.889h12.778V301Zm-11.778 104.611h176.889v1.889a2.5 2.5 0 0 1-2.5 2.5H247.333a2.5 2.5 0 0 1-2.5-2.5v-1.889Z" fill="url(#rt24cfpuia)" fill-opacity=".4"/><path fill-rule="evenodd" clip-rule="evenodd" d="M363.625 311.375h-91.042v1.597h91.042v-1.597Zm-38.334 6.389h-52.708v1.597h52.708v-1.597Zm-52.708 38.333h52.708v1.597h-52.708v-1.597Zm52.708 12.778h-52.708v1.597h52.708v-1.597Zm-52.708-6.389h99.028v1.597h-99.028v-1.597Zm36.736-38.333h-36.736v1.597h36.736v-1.597Zm-36.736 25.555h14.375v1.598h-14.375v-1.598Zm30.347 25.556h-30.347v1.597h30.347v-1.597Zm-30.347 6.389h30.347v1.597h-30.347v-1.597Zm49.514-6.389h-14.375v1.597h14.375v-1.597Zm-14.375 6.389h14.375v1.597h-14.375v-1.597Zm-27.153-51.111h-7.986v1.597h7.986v-1.597Zm27.153 0h23.958v1.597h-23.958v-1.597Zm27.153 12.777h-27.153v1.598h27.153v-1.598Zm-27.153-6.388h35.139v1.597h-35.139v-1.597Zm-4.792-6.389h-17.569v1.597h17.569v-1.597Zm-30.347 6.389h7.986v1.597h-7.986v-1.597Zm30.347 0h-17.569v1.597h17.569v-1.597Zm-30.347 6.388h7.986v1.598h-7.986v-1.598Zm30.347 0h-17.569v1.598h17.569v-1.598Z" fill="url(#0uf6dnotqb)" fill-opacity=".25"/><path opacity=".5" fill="#fff" d="M325.291 379.652h3.194v1.597h-3.194z"/><path fill-rule="evenodd" clip-rule="evenodd" d="M664 180.333h-1.125l-57.649 59.529a46.257 46.257 0 0 0-8.516-8.456l58.134-60.03a10.001 10.001 0 0 1 7.184-3.043H664v12ZM530.854 293.96l-61.597 53.54h-50.924v12h51.671a10 10 0 0 0 6.56-2.452l62.299-54.15a46.248 46.248 0 0 1-8.009-8.938Z" fill="url(#2dki8t3ltc)" fill-opacity=".1"/><path d="M246.333 353.5H50.902a23.997 23.997 0 0 1-16.513-6.584l-20.902-19.817A24.001 24.001 0 0 1 6 309.682V277.5" stroke="url(#am42m9wtod)" stroke-opacity=".05" stroke-width="12"/><path d="M352.833 286v-23.738a24.004 24.004 0 0 1 7.419-17.352L570.876 43.648A23.999 23.999 0 0 1 587.456 37H664" stroke="url(#tnrmoyr80e)" stroke-opacity=".05" stroke-width="12"/><g opacity=".87" fill="#306EE8"><circle cx="498.954" cy="330.15" r="6" transform="rotate(-41.604 498.954 330.15)"/><circle opacity=".4" cx="487.322" cy="340.479" r="6" transform="rotate(-41.604 487.322 340.479)"/><circle opacity=".6" cx="493.667" cy="334.844" r="6" transform="rotate(-41.604 493.667 334.844)"/><circle opacity=".2" cx="480.976" cy="346.113" r="6" transform="rotate(-41.604 480.976 346.113)"/><circle opacity=".1" cx="474.632" cy="351.747" r="6" transform="rotate(-41.604 474.632 351.747)"/><path d="M500.833 328.156a5.999 5.999 0 0 1 .502-8.47l16.557-14.702a6 6 0 0 1 8.47.503 5.999 5.999 0 0 1-.502 8.47l-16.557 14.702a6 6 0 0 1-8.47-.503Z"/></g><circle opacity=".2" cx="568.834" cy="268" r="37" fill="#fff"/><path opacity=".03" d="m561.833 183.5 86.513-97.153c2.445-2.746 6.987-1.016 6.987 2.66v55.397c0 1.025-.393 2.01-1.098 2.754L590.333 214.5m-25.5 6.5-19.662-20.973a4 4 0 0 0-5.759-.079l-49.67 50.122a3.999 3.999 0 0 0-.381 5.186l15.179 20.628a4 4 0 0 0 5.484.928L524.333 267m-52.5 3 18.407 21.037a4 4 0 0 1-.329 5.602l-9.873 8.918c-1.533 1.384-3.855 1.363-5.487.098-11.187-8.671-31.331-16.042-48.218.845m-125-37.5h28.5a4 4 0 0 0 4-4v-21.044a4 4 0 0 0-1.544-3.157L306.833 221m66.5-63.5 17.241 18.965a4 4 0 0 1-.344 5.717l-34.31 29.65a4 4 0 0 1-5.693-.471L330.833 188m328.5 26.5-32.19 41.658a4 4 0 0 0-.099 4.758l32.289 45.584m-3.5 46.5s-14.827-23.63-38.236-42.791c-1.563-1.279-3.829-1.127-5.319.236-24.977 22.84-53.78 19.078-67.407 11.606-1.549-.849-3.479-.79-4.854.32L492.833 360.5M548.333 2l10.972 14.223a4 4 0 0 0 5.717.638l10.201-8.443a4.002 4.002 0 0 1 2.551-.918h78.059M377.511 265.318l1.968 20.072a4 4 0 0 0 3.981 3.61h33.793a3.998 3.998 0 0 0 2.733-1.08l34.991-32.747a4 4 0 0 0 .248-5.588l-28.498-31.85a4 4 0 0 0-5.882-.086l-42.254 44.526a3.999 3.999 0 0 0-1.08 3.143Zm63.089-65.411 33.906 35.623a4 4 0 0 0 5.726.071l49.236-49.236a4 4 0 0 0-.036-5.693l-33.849-32.992a4 4 0 0 0-5.54-.042l-49.294 46.605a4 4 0 0 0-.149 5.664ZM639.873 64h-59.009c-.986 0-1.937.364-2.671 1.022l-68.115 61.069a3.999 3.999 0 0 0-.069 5.893l35.457 33.321a3.998 3.998 0 0 0 5.608-.128l91.668-94.39c2.463-2.537.666-6.787-2.869-6.787Z" stroke="url(#zwgg3n8n6f)" stroke-width="4"/><g opacity=".9"><path opacity=".75" fill-rule="evenodd" clip-rule="evenodd" d="M568.834 241c14.365 0 26 12.381 26 27.667 0 12.242-7.443 22.582-17.778 26.248-1.3.242-1.787-.588-1.787-1.314 0-.657.032-2.836.032-5.153 6.533 1.28 8.223-1.694 8.743-3.251.292-.795 1.56-3.25 2.665-3.908.91-.518 2.21-1.798.032-1.832-2.047-.035-3.51 2.005-3.997 2.835-2.34 4.185-6.078 3.009-7.573 2.283-.227-1.798-.91-3.009-1.657-3.701 5.785-.691 11.83-3.077 11.83-13.66 0-3.009-1.008-5.499-2.665-7.435.26-.692 1.17-3.528-.26-7.332 0 0-2.178-.726-7.15 2.836a22.75 22.75 0 0 0-6.5-.934c-2.21 0-4.42.311-6.5.934-4.973-3.597-7.15-2.836-7.15-2.836-1.43 3.804-.52 6.64-.26 7.332-1.658 1.936-2.665 4.392-2.665 7.435 0 10.617 6.077 12.969 11.862 13.66-.942.865-1.755 2.525-1.755 5.119 0 3.7.033 6.674.033 7.608 0 .726-.488 1.591-1.788 1.314-10.27-3.666-17.712-14.041-17.712-26.248 0-15.286 11.635-27.667 26-27.667Z" fill="#000"/></g><defs><linearGradient id="rt24cfpuia" x1="333.277" y1="245.377" x2="333.277" y2="460.411" gradientUnits="userSpaceOnUse"><stop stop-color="#fff"/><stop offset="1" stop-color="#fff" stop-opacity="0"/></linearGradient><linearGradient id="0uf6dnotqb" x1="321.833" y1="347" x2="321.833" y2="409" gradientUnits="userSpaceOnUse"><stop stop-color="#5FB084"/><stop offset="1" stop-color="#fff" stop-opacity="0"/></linearGradient><linearGradient id="2dki8t3ltc" x1="370.042" y1="347.119" x2="528.074" y2="104.784" gradientUnits="userSpaceOnUse"><stop offset=".873" stop-color="#fff"/><stop offset="1" stop-color="#fff" stop-opacity="0"/></linearGradient><linearGradient id="am42m9wtod" x1="128.833" y1="383" x2="5.833" y2="275.5" gradientUnits="userSpaceOnUse"><stop stop-color="#fff"/><stop offset="1" stop-color="#fff" stop-opacity="0"/></linearGradient><linearGradient id="tnrmoyr80e" x1="352.833" y1="242" x2="671.833" y2="17" gradientUnits="userSpaceOnUse"><stop offset=".647" stop-color="#fff"/><stop offset="1" stop-color="#fff" stop-opacity="0"/></linearGradient><linearGradient id="zwgg3n8n6f" x1="402.333" y1="313.5" x2="682.333" y2="37" gradientUnits="userSpaceOnUse"><stop stop-color="#fff"/><stop offset="1" stop-color="#fff" stop-opacity="0"/></linearGradient></defs></svg>