<svg width="26" height="150" viewBox="0 0 26 150" fill="none" xmlns="http://www.w3.org/2000/svg"><path d="M13 .5c3.072 0 5.94 2.183 8.073 5.297C23.197 8.9 24.5 12.803 24.5 16v75c0 3.22-1.099 7.38-3.116 10.727-2.022 3.355-4.889 5.773-8.384 5.773-3.05 0-5.919-2.404-8.063-5.783C2.807 98.36 1.5 94.202 1.5 91V16c0-3.197 1.303-7.1 3.427-10.203C7.06 2.683 9.928.5 13 .5Z" fill="url(#e4sqbxb6za)" stroke="#306EE8"/><path d="M21 85.273V84s-2.214 2.727-8 2.727S5 84 5 84v1.273S7.857 90 13 90s8-4.727 8-4.727Z" fill="#BACFF7"/><path d="M7 16.5a.5.5 0 0 1 1 0v60a.5.5 0 0 1-1 0v-60Zm11 0a.5.5 0 0 1 1 0v60a.5.5 0 0 1-1 0v-60Z" fill="#1D4596"/><path d="M20 103c-2-4.627-5.783-5-7-5-1.217 0-5 .373-7 5m18.5-35c0-4.627-9.5-5-11.5-5s-11.5.373-11.5 5m23-34c0-4.627-9.5-5-11.5-5s-11.5.373-11.5 5" stroke="#306EE8"/><rect x="21" y="37" width="1" height="8" rx=".5" fill="#8CAEF2"/><rect x="21" y="18" width="1" height="8" rx=".5" fill="#8CAEF2"/><rect x="21" y="71" width="1" height="8" rx=".5" fill="#8CAEF2"/><rect x="21" y="51" width="1" height="8" rx=".5" fill="#8CAEF2"/><rect x="4" y="37" width="1" height="8" rx=".5" fill="#8CAEF2"/><rect x="4" y="18" width="1" height="8" rx=".5" fill="#8CAEF2"/><rect x="4" y="51" width="1" height="8" rx=".5" fill="#8CAEF2"/><rect x="4" y="71" width="1" height="8" rx=".5" fill="#8CAEF2"/><path opacity=".5" d="M11 139.4C11 125.35 8.937 97 5.5 97 2.462 97 0 125.35 0 139.4c0 6.36 2.462 10.6 5.5 10.6s5.5-5.03 5.5-10.6Z" fill="url(#1vqmv16osb)"/><path opacity=".5" d="M26 139.4c0-14.05-2.063-42.4-5.5-42.4-3.038 0-5.5 28.35-5.5 42.4 0 6.36 2.462 10.6 5.5 10.6s5.5-5.03 5.5-10.6Z" fill="url(#ubdt96w3ec)"/><defs><linearGradient id="e4sqbxb6za" x1="13" y1="0" x2="13" y2="108" gradientUnits="userSpaceOnUse"><stop stop-color="#0B1426"/><stop offset="1" stop-color="#1A4DB3"/></linearGradient><linearGradient id="1vqmv16osb" x1="5.5" y1="150" x2="5.5" y2="97" gradientUnits="userSpaceOnUse"><stop offset=".115" stop-color="#fff" stop-opacity="0"/><stop offset=".531" stop-color="#999" stop-opacity=".448"/><stop offset="1" stop-color="#fff" stop-opacity=".4"/></linearGradient><linearGradient id="ubdt96w3ec" x1="20.5" y1="150" x2="20.5" y2="97" gradientUnits="userSpaceOnUse"><stop offset=".115" stop-color="#fff" stop-opacity="0"/><stop offset=".531" stop-color="#999" stop-opacity=".448"/><stop offset="1" stop-color="#fff" stop-opacity=".4"/></linearGradient></defs></svg>